<svg xmlns="http://www.w3.org/2000/svg" version="1.1" xmlns:xlink="http://www.w3.org/1999/xlink" xmlns:svgjs="http://svgjs.dev/svgjs" width="1500" height="295" viewBox="0 0 1500 295"><g transform="matrix(1,0,0,1,-0.9084522071641459,-0.7757923863174199)"><svg viewBox="0 0 396 78" data-background-color="#ffffff" preserveAspectRatio="xMidYMid meet" height="295" width="1500" xmlns="http://www.w3.org/2000/svg" xmlns:xlink="http://www.w3.org/1999/xlink"><g id="tight-bounds" transform="matrix(1,0,0,1,0.24008861730862918,0.20541294887172512)"><svg viewBox="0 0 395.52 77.58946228457656" height="77.58946228457656" width="395.52"><g><svg viewBox="0 0 395.52 77.58946228457656" height="77.58946228457656" width="395.52"><g><svg viewBox="0 0 395.52 77.58946228457656" height="77.58946228457656" width="395.52"><g id="textblocktransform"><svg viewBox="0 0 395.52 77.58946228457656" height="77.58946228457656" width="395.52" id="textblock"><g><svg viewBox="0 0 395.52 77.58946228457656" height="77.58946228457656" width="395.52"><path d="M394.594 16.641C392.735 8.588 387.435 6.349 387.435 6.349 371.165-1.947 350.86-0.159 332.619 1.033 300.414 1.082 268.339 2.853 236.208 3.804 168.767 3.949 100.749 1.565 33.643 7.444 27.339 9.248-6.54 7.798 1.121 17.672 3.129 21.78 10.456 26.338 10.232 30.107 11.236 30.768 12.631 29.254 13.226 30.204 15.309 32.765 18.711 31.557 21.501 33.071 17.614 37.114 20.403 40.481 23.062 44.008 18.377 44.926 12.371 44.491 9.675 47.536 9.396 49.742 7.89 49.324 6.235 49.227 5.026 49.163 2.59 49.404 2.999 50.097 4.394 52.465-1.594 53.834 2.162 56.153-0.422 58.666 3.948 60.84 3.353 63.563 3.278 64.11 3.687 64.577 4.338 64.706 7.22 65.399 3.018 66.752 3.464 68.218 33.029 78.237 65.104 71.31 95.394 75.917 103.259 72.696 97.346 77.061 100.489 76.384 102.943 75.595 104.728 78.865 107.499 77.012 107.927 76.481 107.276 75.224 108.8 75.466 109.6 75.595 110.307 75.563 110.418 74.822 110.586 73.71 109.117 74.403 108.726 73.823 112.947 70.892 111.906 77.866 115.866 77.576 115.68 76.722 114.528 75.498 116.889 75.659 119.232 74.435 119.306 73.42 121.389 76.175 121.463 76.771 121.835 77.19 122.43 77.48 128.938 74.484 135.409 78.543 142.233 77.19 146.417 75.708 150.433 77.995 154.672 77.431 156.16 76.98 157.666 76.175 159.098 77.528 176.632 77.818 195.319 76.61 211.943 77.576 256.364 75.772 303.836 78.317 350.674 75.933 361.719 75.015 373.192 73.71 383.958 72.663 383.958 72.663 392.679 69.796 392.679 56.91S394.538 45.635 394.817 35.374C395.096 25.114 396.398 24.695 394.538 16.641Z" opacity="1" fill="#000000" data-fill-palette-color="tertiary"></path><g transform="matrix(1,0,0,1,55.76832,26.230666666666668)"><svg width="283.98335999999995" viewBox="-12.5 -31.25 359.93 31.85" height="25.128128951243223" data-palette-color="#fa6402"><path d="M19.6 0L9.6 0 22.75-31.25 37.45-31.25 39.65 0 29.6 0 29.4-4.95 21.55-4.95 19.6 0ZM21.1-31.25L20.2-29.1-0.2-31.25 21.1-31.25ZM19.05-26.45L18.15-24.3-2.25-26.45 19.05-26.45ZM17.05-21.65L16.15-19.45-4.3-21.65 17.05-21.65ZM28.15-21.65L24.65-12.9 28.65-12.9 28.65-21.65 28.15-21.65ZM15.05-16.85L14.1-14.65-6.35-16.85 15.05-16.85ZM13-12.05L12.1-9.85-8.4-12.05 13-12.05ZM11-7.25L10.05-5.05-10.45-7.25 11-7.25ZM8.95-2.4L8-0.2-12.5-2.4 8.95-2.4ZM61.15 0L52.75 0 57.35-26.45 64.15-26.45 69.35-16.6 69.65-16.6 71.35-26.45 79.7-26.45 75.05 0 68.25 0 63.1-9.9 62.9-9.9 61.15 0ZM55.7-26.45L55.35-24.2 34.15-26.45 55.7-26.45ZM54.9-21.65L54.5-19.4 33.3-21.65 54.9-21.65ZM54.05-16.85L53.65-14.6 32.45-16.85 54.05-16.85ZM53.2-12.05L52.8-9.8 31.6-12.05 53.2-12.05ZM52.35-7.25L51.95-5 30.75-7.25 52.35-7.25ZM51.5-2.4L51.1-0.15 29.9-2.4 51.5-2.4ZM99.25 0L90.59 0 101.7-26.45 114.09-26.45 116.05 0 107.3 0 107.09-4.05 100.8-4.05 99.25 0ZM100.05-26.45L99.15-24.3 78.75-26.45 100.05-26.45ZM98.05-21.65L97.15-19.45 76.7-21.65 98.05-21.65ZM106.4-18.8L103.45-11.2 107.09-11.2 107.09-18.8 106.4-18.8ZM96.05-16.85L95.09-14.65 74.65-16.85 96.05-16.85ZM94-12.05L93.09-9.85 72.59-12.05 94-12.05ZM92-7.25L91.05-5.05 70.55-7.25 92-7.25ZM89.95-2.4L89-0.2 68.5-2.4 89.95-2.4ZM137.49 0L129.09 0 133.69-26.45 140.49-26.45 145.69-16.6 145.99-16.6 147.69-26.45 156.04-26.45 151.39 0 144.59 0 139.44-9.9 139.24-9.9 137.49 0ZM132.04-26.45L131.69-24.2 110.49-26.45 132.04-26.45ZM131.24-21.65L130.84-19.4 109.64-21.65 131.24-21.65ZM130.39-16.85L129.99-14.6 108.79-16.85 130.39-16.85ZM129.54-12.05L129.14-9.8 107.94-12.05 129.54-12.05ZM128.69-7.25L128.29-5 107.09-7.25 128.69-7.25ZM127.84-2.4L127.44-0.15 106.24-2.4 127.84-2.4ZM178.74 0L167.54 0 172.14-26.45 183.39-26.45Q188.94-26.45 191.24-24.48 193.54-22.5 193.54-18.25L193.54-18.25Q193.54-17.15 193.39-15.9 193.24-14.65 192.99-13.2L192.99-13.2Q192.19-8.65 190.64-5.73 189.09-2.8 186.27-1.4 183.44 0 178.74 0L178.74 0ZM170.49-26.45L170.14-24.2 148.94-26.45 170.49-26.45ZM169.69-21.65L169.29-19.4 148.09-21.65 169.69-21.65ZM179.29-19.15L177.19-7.15 180.09-7.15Q181.39-7.15 182.24-7.48 183.09-7.8 183.29-9.05L183.29-9.05 184.74-17.3Q184.79-17.45 184.79-17.6 184.79-17.75 184.79-17.85L184.79-17.85Q184.79-18.7 184.07-18.93 183.34-19.15 182.19-19.15L182.19-19.15 179.29-19.15ZM168.84-16.85L168.44-14.6 147.24-16.85 168.84-16.85ZM167.99-12.05L167.59-9.8 146.39-12.05 167.99-12.05ZM167.14-7.25L166.74-5 145.54-7.25 167.14-7.25ZM166.29-2.4L165.89-0.15 144.69-2.4 166.29-2.4ZM235.39 0L221.49 0 219.64-31.25 230.19-31.25 230.19-11.4 230.64-11.4 238.19-31.25 248.24-31.25 235.39 0ZM218.14-31.25L218.24-29 197.09-31.25 218.14-31.25ZM218.39-26.45L218.54-24.2 197.34-26.45 218.39-26.45ZM218.69-21.65L218.79-19.4 197.64-21.65 218.69-21.65ZM218.94-16.85L219.09-14.6 197.94-16.85 218.94-16.85ZM219.24-12.05L219.39-9.8 198.24-12.05 219.24-12.05ZM219.54-7.25L219.69-5 198.49-7.25 219.54-7.25ZM219.84-2.4L219.99-0.15 198.79-2.4 219.84-2.4ZM267.38 0L258.93 0 260.23-7.55 256.33-26.45 264.93-26.45 266.03-16.85 266.33-16.85 270.48-26.45 279.23-26.45 268.63-7.55 267.38 0ZM254.83-26.45L255.28-24.2 234.08-26.45 254.83-26.45ZM255.83-21.65L256.28-19.4 235.08-21.65 255.83-21.65ZM256.83-16.85L257.28-14.6 236.08-16.85 256.83-16.85ZM257.78-12.05L258.28-9.8 237.08-12.05 257.78-12.05ZM258.68-7.25L258.28-5 237.08-7.25 258.68-7.25ZM257.83-2.4L257.43-0.15 236.23-2.4 257.83-2.4ZM292.73 0L284.08 0 295.18-26.45 307.58-26.45 309.53 0 300.78 0 300.58-4.05 294.28-4.05 292.73 0ZM293.53-26.45L292.63-24.3 272.23-26.45 293.53-26.45ZM291.53-21.65L290.63-19.45 270.18-21.65 291.53-21.65ZM299.88-18.8L296.93-11.2 300.58-11.2 300.58-18.8 299.88-18.8ZM289.53-16.85L288.58-14.65 268.13-16.85 289.53-16.85ZM287.48-12.05L286.58-9.85 266.08-12.05 287.48-12.05ZM285.48-7.25L284.53-5.05 264.03-7.25 285.48-7.25ZM283.43-2.4L282.48-0.2 261.98-2.4 283.43-2.4ZM332.63 0.6L332.63 0.6Q330.28 0.6 327.85 0.35 325.43 0.1 323.08-0.55L323.08-0.55 325.53-7.95Q329.43-6.85 333.03-6.85L333.03-6.85Q333.93-6.85 334.75-6.88 335.58-6.9 336.48-7L336.48-7 336.73-8.6 333.58-8.95Q329.43-9.4 327.78-10.9 326.13-12.4 326.13-15L326.13-15Q326.13-15.55 326.2-16.2 326.28-16.85 326.38-17.5L326.38-17.5Q327.03-21.1 328.35-23.15 329.68-25.2 332.1-26.08 334.53-26.95 338.48-26.95L338.48-26.95Q343.23-26.95 347.43-25.9L347.43-25.9 345.03-18.6Q343.28-19 341.83-19.2 340.38-19.4 338.68-19.4L338.68-19.4Q337.73-19.4 337.13-19.38 336.53-19.35 335.68-19.25L335.68-19.25 335.43-17.8 337.93-17.5Q342.33-17 344.15-15.25 345.98-13.5 345.98-10.85L345.98-10.85Q345.98-10.4 345.93-9.9 345.88-9.4 345.78-8.9L345.78-8.9Q345.18-5.45 343.88-3.5 342.58-1.55 340.78-0.68 338.98 0.2 336.88 0.4 334.78 0.6 332.63 0.6ZM327.28-24.35L327.28-24.35 307.78-26.45 329.33-26.45Q328.73-26 328.2-25.5 327.68-25 327.28-24.35ZM325.23-19.4L325.23-19.4 304.33-21.65 325.88-21.65Q325.68-21.15 325.53-20.58 325.38-20 325.23-19.4ZM324.63-15L324.63-14.6 303.43-16.85 324.73-16.85Q324.68-16.4 324.65-15.93 324.63-15.45 324.63-15L324.63-15ZM326.53-9.8L326.53-9.8 305.38-12.05 325.08-12.05Q325.53-10.75 326.53-9.8ZM323.68-7.25L322.98-5.05 302.13-7.25 323.68-7.25ZM322.08-2.4L321.38-0.15 300.48-2.4 322.08-2.4Z" opacity="1" transform="matrix(1,0,0,1,0,0)" fill="#fa6402" class="wordmark-text-0" data-fill-palette-color="quaternary" id="text-0"></path></svg></g></svg></g></svg></g></svg></g><g></g></svg></g><defs></defs></svg><rect width="395.52" height="77.58946228457656" fill="none" stroke="none" visibility="hidden"></rect></g></svg></g></svg>