<svg xmlns="http://www.w3.org/2000/svg" version="1.1" xmlns:xlink="http://www.w3.org/1999/xlink" xmlns:svgjs="http://svgjs.dev/svgjs" width="1500" height="219" viewBox="0 0 1500 219"><g transform="matrix(1,0,0,1,-0.9090909090909918,0.13110350608252475)"><svg viewBox="0 0 396 58" data-background-color="#ffffff" preserveAspectRatio="xMidYMid meet" height="219" width="1500" xmlns="http://www.w3.org/2000/svg" xmlns:xlink="http://www.w3.org/1999/xlink"><g id="tight-bounds" transform="matrix(1,0,0,1,0.2400000000000091,-0.03472147649674184)"><svg viewBox="0 0 395.52 58.06944295299347" height="58.06944295299347" width="395.52"><g><svg viewBox="0 0 542.8381498083362 79.6983944503532" height="58.06944295299347" width="395.52"><g><rect width="5.200639262138875" height="69.20265798872926" x="409.1342389061227" y="5.247868230811974" fill="#ffdc00" opacity="1" stroke-width="0" stroke="transparent" fill-opacity="1" class="rect-qz-0" data-fill-palette-color="primary" rx="1%" id="qz-0" data-palette-color="#ffdc00"></rect></g><g transform="matrix(1,0,0,1,0,11.014756396539411)"><svg viewBox="0 0 395.52 57.66888165727438" height="57.66888165727438" width="395.52"><g id="textblocktransform"><svg viewBox="0 0 395.52 57.66888165727438" height="57.66888165727438" width="395.52" id="textblock"><g><svg viewBox="0 0 395.52 57.66888165727438" height="57.66888165727438" width="395.52"><g transform="matrix(1,0,0,1,0,0)"><svg width="395.52" viewBox="0.22 -35.82 307.57 44.85" height="57.66888165727438" data-palette-color="#ffdc00"><path d="M36.4 0L25.49 0 24.12-3.54 13.53-3.54 15.77-9.96 21.63-9.96 12.96-32.4 23.49-32.4 36.4 0ZM10.64 0L0.22 0 11.79-30.93 16.58-18.07 10.64 0ZM67.26 0L56.44 0 56.44-19.46 51.8-19.46 51.8-22.29 55.42-25.93 61.42-25.93 67.26-20.09 67.26 0ZM50.05 0L39.16 0 39.16-25.93 50.05-25.93 50.05 0ZM99.9 0L89.35 0 89.35-19.46 73.99-19.46 73.99-22.68 77.24-25.93 93.43-25.93 99.9-19.46 99.9 0ZM84.42 0L76.17 0 71.82-4.27 71.82-10.77 76.17-15.09 87.64-15.09 87.64-10.6 82.08-10.6 82.08-6.05 87.64-6.05 87.64-3.2 84.42 0ZM132.85 0L122.04 0 122.04-19.46 117.4-19.46 117.4-22.29 121.01-25.93 127.02-25.93 132.85-20.09 132.85 0ZM115.64 0L104.75 0 104.75-25.93 115.64-25.93 115.64 0ZM166.13 0L155.34 0 155.34-35.82 166.13-35.82 166.13 0ZM151.06 0L143.47 0 137.64-5.83 137.64-20.09 143.47-25.93 153.63-25.93 153.63-19.46 148.43-19.46 148.43-6.05 153.63-6.05 153.63-2.56 151.06 0ZM203.18 0L192.69 0 180.97-32.4 191.98-32.4 203.18 0ZM215.71-32.4L204.5-0.98 199.64-15.23 204.87-32.4 215.71-32.4ZM232.06 9.03L221.71 9.03 234.85-25.93 245.22-25.93 232.06 9.03ZM229.13-15.38L224.3-2.17 214.73-25.93 225.5-25.93 229.13-15.38ZM275.05 0L264.51 0 264.51-19.46 249.15-19.46 249.15-22.68 252.4-25.93 268.58-25.93 275.05-19.46 275.05 0ZM259.57 0L251.32 0 246.98-4.27 246.98-10.77 251.32-15.09 262.8-15.09 262.8-10.6 257.23-10.6 257.23-6.05 262.8-6.05 262.8-3.2 259.57 0ZM301.76 0L297 0 297-9.79 285.33-9.79 279.71-15.19 279.71-20.12 285.55-25.93 289.87-25.93 289.87-16.77 302.17-16.77 307.79-11.11 307.79-6.05 301.76 0ZM306.91-19.14L297-19.14 297-21.17 291.58-21.17 291.58-25.93 303.05-25.93 306.91-22.07 306.91-19.14ZM295.29 0L284.18 0 279.69-5.35 279.69-7.42 290.5-7.42 290.5-4.76 295.29-4.76 295.29 0Z" opacity="1" transform="matrix(1,0,0,1,0,0)" fill="#ffdc00" class="wordmark-text-0" data-fill-palette-color="primary" id="text-0"></path></svg></g></svg></g></svg></g></svg></g><g transform="matrix(1,0,0,1,427.9491170743842,0)"><svg viewBox="0 0 114.88903273395191 79.6983944503532" height="79.6983944503532" width="114.88903273395191"><g><svg xmlns="http://www.w3.org/2000/svg" xmlns:xlink="http://www.w3.org/1999/xlink" version="1.1" x="0" y="0" viewBox="1.539999999999992 16.323999999999998 97.09400000000001 67.35399999999998" enable-background="new 0 0 100 100" xml:space="preserve" height="79.6983944503532" width="114.88903273395191" class="icon-icon-0" data-fill-palette-color="accent" id="icon-0"><g fill="#ff851b" data-fill-palette-color="accent"><g fill="#ff851b" data-fill-palette-color="accent"><g fill="#ff851b" data-fill-palette-color="accent"><path fill-rule="evenodd" clip-rule="evenodd" d="M98.634 63.623c0-11.078-8.979-20.057-20.056-20.057-1.711 0-3.363 0.237-4.948 0.641 0.232-1.335 0.36-2.705 0.36-4.106 0-13.132-10.646-23.777-23.777-23.777-13.131 0-23.777 10.645-23.777 23.777 0 1.425 0.132 2.818 0.373 4.174-1.666-0.448-3.408-0.709-5.214-0.709-11.077 0-20.055 8.979-20.055 20.057 0 10.449 7.993 19.022 18.198 19.961 0.113 0.05 0.236 0.079 0.367 0.079h1.2c0.098 0.001 0.192 0.015 0.29 0.015s0.192-0.014 0.29-0.015h56.404c0.098 0.001 0.192 0.015 0.29 0.015s0.192-0.014 0.29-0.015h0.512c0.061 0 0.113-0.023 0.171-0.034C90.173 83.118 98.634 74.371 98.634 63.623z" fill="#ff851b" data-fill-palette-color="accent"></path></g></g></g></svg></g></svg></g></svg></g><defs></defs></svg><rect width="395.52" height="58.06944295299347" fill="none" stroke="none" visibility="hidden"></rect></g></svg></g></svg>