<svg xmlns="http://www.w3.org/2000/svg" version="1.1" xmlns:xlink="http://www.w3.org/1999/xlink" xmlns:svgjs="http://svgjs.dev/svgjs" width="1500" height="242" viewBox="0 0 1500 242"><g transform="matrix(1,0,0,1,-0.9090909090909918,-0.447508997757609)"><svg viewBox="0 0 396 64" data-background-color="#ffffff" preserveAspectRatio="xMidYMid meet" height="242" width="1500" xmlns="http://www.w3.org/2000/svg" xmlns:xlink="http://www.w3.org/1999/xlink"><g id="tight-bounds" transform="matrix(1,0,0,1,0.2400000000000091,0.1183494870102777)"><svg viewBox="0 0 395.52 63.76330102597947" height="63.76330102597947" width="395.52"><g><svg viewBox="0 0 494.36444578301194 79.6983944503532" height="63.76330102597947" width="395.52"><g><rect width="5.200639262138875" height="69.20265798872926" x="80.02956761475038" y="5.247868230811974" fill="#ffdc00" opacity="1" stroke-width="0" stroke="transparent" fill-opacity="1" class="rect-qz-0" data-fill-palette-color="primary" rx="1%" id="qz-0" data-palette-color="#ffdc00"></rect></g><g transform="matrix(1,0,0,1,98.84444578301196,11.014756396539411)"><svg viewBox="0 0 395.52 57.66888165727438" height="57.66888165727438" width="395.52"><g id="textblocktransform"><svg viewBox="0 0 395.52 57.66888165727438" height="57.66888165727438" width="395.52" id="textblock"><g><svg viewBox="0 0 395.52 57.66888165727438" height="57.66888165727438" width="395.52"><g transform="matrix(1,0,0,1,0,0)"><svg width="395.52" viewBox="0.22 -35.82 307.57 44.85" height="57.66888165727438" data-palette-color="#ffdc00"><path d="M36.4 0L25.49 0 24.12-3.54 13.53-3.54 15.77-9.96 21.63-9.96 12.96-32.4 23.49-32.4 36.4 0ZM10.64 0L0.22 0 11.79-30.93 16.58-18.07 10.64 0ZM67.26 0L56.44 0 56.44-19.46 51.8-19.46 51.8-22.29 55.42-25.93 61.42-25.93 67.26-20.09 67.26 0ZM50.05 0L39.16 0 39.16-25.93 50.05-25.93 50.05 0ZM99.9 0L89.35 0 89.35-19.46 73.99-19.46 73.99-22.68 77.24-25.93 93.43-25.93 99.9-19.46 99.9 0ZM84.42 0L76.17 0 71.82-4.27 71.82-10.77 76.17-15.09 87.64-15.09 87.64-10.6 82.08-10.6 82.08-6.05 87.64-6.05 87.64-3.2 84.42 0ZM132.85 0L122.04 0 122.04-19.46 117.4-19.46 117.4-22.29 121.01-25.93 127.02-25.93 132.85-20.09 132.85 0ZM115.64 0L104.75 0 104.75-25.93 115.64-25.93 115.64 0ZM166.13 0L155.34 0 155.34-35.82 166.13-35.82 166.13 0ZM151.06 0L143.47 0 137.64-5.83 137.64-20.09 143.47-25.93 153.63-25.93 153.63-19.46 148.43-19.46 148.43-6.05 153.63-6.05 153.63-2.56 151.06 0ZM203.18 0L192.69 0 180.97-32.4 191.98-32.4 203.18 0ZM215.71-32.4L204.5-0.98 199.64-15.23 204.87-32.4 215.71-32.4ZM232.06 9.03L221.71 9.03 234.85-25.93 245.22-25.93 232.06 9.03ZM229.13-15.38L224.3-2.17 214.73-25.93 225.5-25.93 229.13-15.38ZM275.05 0L264.51 0 264.51-19.46 249.15-19.46 249.15-22.68 252.4-25.93 268.58-25.93 275.05-19.46 275.05 0ZM259.57 0L251.32 0 246.98-4.27 246.98-10.77 251.32-15.09 262.8-15.09 262.8-10.6 257.23-10.6 257.23-6.05 262.8-6.05 262.8-3.2 259.57 0ZM301.76 0L297 0 297-9.79 285.33-9.79 279.71-15.19 279.71-20.12 285.55-25.93 289.87-25.93 289.87-16.77 302.17-16.77 307.79-11.11 307.79-6.05 301.76 0ZM306.91-19.14L297-19.14 297-21.17 291.58-21.17 291.58-25.93 303.05-25.93 306.91-22.07 306.91-19.14ZM295.29 0L284.18 0 279.69-5.35 279.69-7.42 290.5-7.42 290.5-4.76 295.29-4.76 295.29 0Z" opacity="1" transform="matrix(1,0,0,1,0,0)" fill="#ffdc00" class="wordmark-text-0" data-fill-palette-color="primary" id="text-0"></path></svg></g></svg></g></svg></g></svg></g><g><svg viewBox="0 0 66.41532870862767 79.6983944503532" height="79.6983944503532" width="66.41532870862767"><g><svg xmlns="http://www.w3.org/2000/svg" xmlns:xlink="http://www.w3.org/1999/xlink" version="1.1" x="0" y="0" viewBox="12.5 5 75 90" enable-background="new 0 0 100 100" xml:space="preserve" height="79.6983944503532" width="66.41532870862767" class="icon-icon-0" data-fill-palette-color="accent" id="icon-0"><path d="M81.944 16.668C74.999 16.668 62.5 15.001 50 5 40 15 26.667 16.668 18.889 16.668 15 16.668 12.5 16.25 12.5 16.25v21.475C12.5 82.725 50 95 50 95s37.5-12.275 37.5-57.275V16.25C87.5 16.25 85.417 16.668 81.944 16.668zM45.313 65L29.375 48.125l4.688-5.625 11.25 7.969L68.75 33.125l4.219 3.75L45.313 65z" fill="#ff851b" data-fill-palette-color="accent"></path></svg></g></svg></g></svg></g><defs></defs></svg><rect width="395.52" height="63.76330102597947" fill="none" stroke="none" visibility="hidden"></rect></g></svg></g></svg>